<svg height="100%" viewBox="0 0 512 512" width="100%" xmlns="http://www.w3.org/2000/svg"><path d="m512 80v352c0 44.113281-35.886719 80-80 80h-201c-44.113281 0-80-35.886719-80-80v-40c0-11.046875 8.953125-20 20-20s20 8.953125 20 20v40c0 22.054688 17.945312 40 40 40h201c22.054688 0 40-17.945312 40-40v-352c0-22.054688-17.945312-40-40-40h-201c-22.054688 0-40 17.945312-40 40v40c0 11.046875-8.953125 20-20 20s-20-8.953125-20-20v-40c0-44.113281 35.886719-80 80-80h201c44.113281 0 80 35.886719 80 80zm-286.085938 227.800781c-7.839843 7.78125-7.890624 20.445313-.113281 28.285157 3.910157 3.941406 9.054688 5.914062 14.199219 5.914062 5.09375 0 10.1875-1.933594 14.085938-5.800781l45.144531-44.789063c9.523437-9.449218 14.769531-22.023437 14.769531-35.410156s-5.246094-25.960938-14.769531-35.410156l-45.144531-44.789063c-7.839844-7.777343-20.503907-7.730469-28.285157.113281-7.777343 7.839844-7.726562 20.503907.113281 28.28125l32.054688 31.804688h-237.96875c-11.046875 0-20 8.953125-20 20s8.953125 20 20 20h237.96875zm0 0"/></svg>