<?xml version="1.0" encoding="iso-8859-1"?>
<!-- Generator: Adobe Illustrator 18.1.1, SVG Export Plug-In . SVG Version: 6.00 Build 0)  -->
<svg version="1.1" id="Capa_1" xmlns="http://www.w3.org/2000/svg" xmlns:xlink="http://www.w3.org/1999/xlink" x="0px" y="0px"
	 viewBox="0 0 174.239 174.239" style="enable-background:new 0 0 174.239 174.239;" xml:space="preserve">
<g>
	<path d="M150.875,87.601c-4.125,0-7.467,3.345-7.467,7.467v37.828c0,10.968-6.901,20.915-17.171,24.75
		c-2.949,1.099-6.058,1.658-9.237,1.658H41.343c-14.56,0-26.408-11.848-26.408-26.408V57.24c0-14.56,11.848-26.408,26.408-26.408
		h37.828c4.125,0,7.467-3.345,7.467-7.467s-3.342-7.467-7.467-7.467H41.343C18.547,15.897,0,34.444,0,57.24v75.656
		c0,22.796,18.547,41.343,41.343,41.343h75.656c4.969,0,9.833-0.875,14.458-2.601c16.08-6.004,26.885-21.571,26.885-38.742V95.068
		C158.342,90.946,155,87.601,150.875,87.601z"/>
	<path d="M136.001,0c-21.085,0-38.236,17.152-38.236,38.236s17.152,38.241,38.236,38.241s38.239-17.157,38.239-38.241
		S157.085,0,136.001,0z M136.001,61.543c-12.849,0-23.302-10.457-23.302-23.306s10.452-23.302,23.302-23.302
		s23.304,10.452,23.304,23.302S148.85,61.543,136.001,61.543z"/>
	<path d="M58.633,79.307c0,4.123,3.342,7.467,7.467,7.467h26.136c4.125,0,7.467-3.345,7.467-7.467s-3.342-7.467-7.467-7.467H66.101
		C61.976,71.84,58.633,75.184,58.633,79.307z"/>
	<path d="M92.236,103.367H66.101c-4.125,0-7.467,3.345-7.467,7.467s3.342,7.467,7.467,7.467h26.136c4.125,0,7.467-3.345,7.467-7.467
		S96.362,103.367,92.236,103.367z"/>
</g>
<g>
</g>
<g>
</g>
<g>
</g>
<g>
</g>
<g>
</g>
<g>
</g>
<g>
</g>
<g>
</g>
<g>
</g>
<g>
</g>
<g>
</g>
<g>
</g>
<g>
</g>
<g>
</g>
<g>
</g>
</svg>
