<svg height="512pt" viewBox="0 0 512 512" width="512pt" xmlns="http://www.w3.org/2000/svg"><path d="m274.890625 50h-38v-30c0-11.046875-8.957031-20-20-20h-80c-11.046875 0-20 8.953125-20 20v30h-36.890625c-44.113281 0-80 35.886719-80 80v262c0 44.113281 35.886719 80 80 80h191.890625c44.109375 0 80-35.886719 80-80v-262c0-21.300781-7.613281-41.207031-21.4375-56.054688-14.375-15.441406-34.109375-23.945312-55.5625-23.945312zm-118-10h40v60c0 11.027344-8.972656 20-20 20-11.03125 0-20-8.972656-20-20zm155 352c0 22.054688-17.945313 40-40 40h-191.890625c-22.054688 0-40-17.945312-40-40v-262c0-22.054688 17.945312-40 40-40h36.890625v10c0 33.085938 26.914063 60 60 60 33.082031 0 60-26.914062 60-60v-10h38c21.089844 0 37 17.195312 37 40zm189.929687 12.640625c-9.589843-5.484375-21.808593-2.160156-27.292968 7.429687l-22.617188 39.539063-20.019531-35.253906v-304.355469h39.933594l.066406 209.007812c0 11.042969 8.957031 19.992188 20 19.992188h.003906c11.046875-.003906 19.996094-8.960938 19.996094-20.007812l-.082031-261.03125c0-16.015626-6.238282-31.074219-17.5625-42.398438-11.324219-11.328125-26.382813-17.5625-42.398438-17.5625s-31.074218 6.238281-42.398437 17.5625-17.558594 26.382812-17.558594 42.398438v361.679687c0 3.460937.898437 6.867187 2.605469 9.875l39.960937 70.363281c3.546875 6.246094 10.175781 10.109375 17.359375 10.121094h.03125c7.171875 0 13.796875-3.84375 17.359375-10.070312l40.042969-70c5.484375-9.585938 2.15625-21.804688-7.429688-27.289063zm-64.085937-358.792969c3.769531-3.773437 8.78125-5.847656 14.113281-5.847656 5.332032 0 10.34375 2.074219 14.113282 5.847656 3.769531 3.769532 5.847656 8.78125 5.847656 14.117188l.003906 12.035156h-39.925781v-12.039062c.003906-5.332032 2.078125-10.347657 5.847656-14.113282zm-161.796875 299.253906c0 11.046876-8.953125 20-20 20h-159c-11.046875 0-20-8.953124-20-20 0-11.046874 8.953125-20 20-20h159c11.046875 0 20 8.953126 20 20zm-5.207031-94.4375c7.972656 7.644532 8.238281 20.304688.59375 28.277344s-20.304688 8.242188-28.277344.59375l-30.917969-29.644531-41.054687 40.457031c-3.886719 3.828125-8.960938 5.753906-14.039063 5.753906-4.890625 0-9.785156-1.785156-13.632812-5.371093l-21.125-19.679688-11.332032 11.253907c-7.835937 7.785156-20.5 7.742187-28.28125-.09375-7.785156-7.835938-7.742187-20.5.09375-28.285157l24.984376-24.816406c7.621093-7.570313 19.867187-7.765625 27.726562-.441406l21.179688 19.734375 41.25-40.648438c7.710937-7.597656 20.066406-7.683594 27.878906-.191406zm0 0"/></svg>