<?xml version="1.0" standalone="no"?>
<!DOCTYPE svg PUBLIC "-//W3C//DTD SVG 20010904//EN"
 "http://www.w3.org/TR/2001/REC-SVG-20010904/DTD/svg10.dtd">
<svg version="1.0" xmlns="http://www.w3.org/2000/svg"
 width="260.000000pt" height="260.000000pt" viewBox="0 0 260.000000 260.000000"
 preserveAspectRatio="xMidYMid meet">
<metadata>
Created by potrace 1.11, written by Peter Selinger 2001-2013
</metadata>
<g transform="translate(0.000000,260.000000) scale(0.100000,-0.100000)"
fill="#000000" stroke="none">
<path d="M220 2591 c-79 -24 -150 -83 -188 -155 l-27 -51 -3 -1067 -2 -1066
21 -59 c28 -76 96 -143 174 -172 l57 -21 1066 2 1067 3 53 29 c60 33 101 76
134 139 l23 42 0 1085 0 1085 -23 42 c-36 68 -83 114 -147 145 l-60 28 -1060
-1 c-583 0 -1071 -4 -1085 -8z m941 -657 c28 -16 62 -42 75 -59 51 -68 54 -90
54 -476 0 -241 4 -366 11 -382 24 -52 87 -60 130 -18 l29 29 0 154 c0 140 2
158 23 198 60 119 233 117 288 -4 17 -37 19 -70 19 -321 0 -271 -1 -282 -22
-325 -17 -33 -35 -51 -68 -68 -45 -23 -47 -23 -411 -20 l-365 3 -42 28 c-23
15 -52 46 -64 70 l-23 42 0 500 c0 499 0 500 22 542 71 133 214 177 344 107z
m539 13 c50 -26 90 -90 90 -141 -1 -47 -33 -110 -71 -137 -46 -32 -144 -34
-185 -3 -48 35 -67 70 -71 126 -5 71 25 124 87 156 56 28 96 28 150 -1z"/>
</g>
</svg>
