<svg xmlns="http://www.w3.org/2000/svg" width="50.001" height="66.667" viewBox="0 0 50.001 66.667">
  <g id="logo_medium" data-name="logo medium" transform="translate(-137.999 -319)">
    <path id="Subtraction_1" data-name="Subtraction 1" d="M-1095.333-3802.667c-.269,0-.537-.013-.8-.038-.283.025-.576.038-.871.038h-30a10.011,10.011,0,0,1-10-10v-44.167a12.419,12.419,0,0,1,3.661-8.839,12.419,12.419,0,0,1,8.839-3.662,12.417,12.417,0,0,1,8.839,3.662,12.419,12.419,0,0,1,3.661,8.839v33.333a4.172,4.172,0,0,0,4.167,4.167,4.172,4.172,0,0,0,4.167-4.167v-12.625a8.283,8.283,0,0,1,2.482-5.808,8.287,8.287,0,0,1,5.852-2.4A8.343,8.343,0,0,1-1087-3836v25A8.343,8.343,0,0,1-1095.333-3802.667Z" transform="translate(1275 4188.333)" fill="#6b6b6b"/>
    <circle id="Ellipse_4" data-name="Ellipse 4" cx="8.333" cy="8.333" r="8.333" transform="translate(171.333 319)" fill="#6b6b6b"/>
  </g>
</svg>
